<?xml version="1.0" standalone="no"?>
<!DOCTYPE svg PUBLIC "-//W3C//DTD SVG 20010904//EN"
 "http://www.w3.org/TR/2001/REC-SVG-20010904/DTD/svg10.dtd">
<svg version="1.0" xmlns="http://www.w3.org/2000/svg"
 width="500.000000pt" height="500.000000pt" viewBox="0 0 500.000000 500.000000"
 preserveAspectRatio="xMidYMid meet">
<metadata>
Created by potrace 1.14, written by Peter Selinger 2001-2017
</metadata>
<g transform="translate(0.000000,500.000000) scale(0.100000,-0.100000)"
fill="#000000" stroke="none">
<path d="M930 3885 c0 -12 -209 -2182 -215 -2228 l-6 -47 223 2 223 3 12 155
c6 85 12 167 12 183 l1 27 139 0 138 0 12 -137 c6 -76 14 -160 17 -186 l6 -48
586 3 587 3 67 26 c126 49 203 129 252 262 50 133 51 155 51 882 0 611 -2 687
-18 748 -23 92 -59 165 -108 221 -50 56 -102 88 -193 115 -64 20 -91 21 -437
21 l-369 0 -2 -1052 -3 -1053 -100 1050 -100 1050 -387 3 c-214 1 -388 0 -388
-3z m394 -417 c6 -35 96 -1080 96 -1110 0 -16 -11 -18 -100 -18 l-100 0 0 33
c0 17 18 275 40 572 22 297 40 543 40 548 0 4 4 7 10 7 5 0 11 -15 14 -32z
m1217 -4 c11 -12 24 -39 29 -60 5 -21 10 -322 10 -667 0 -670 -1 -681 -48
-706 -12 -6 -52 -11 -91 -11 l-71 0 0 736 0 736 75 -4 c59 -3 79 -8 96 -24z"/>
<path d="M3060 2750 l0 -1140 220 0 220 0 0 1140 0 1140 -220 0 -220 0 0
-1140z"/>
<path d="M3890 2174 c-108 -29 -212 -121 -251 -224 -26 -70 -26 -191 1 -264
118 -313 572 -313 690 0 27 73 27 194 1 264 -40 105 -143 196 -256 225 -72 18
-113 18 -185 -1z"/>
</g>
</svg>
